<svg xmlns="http://www.w3.org/2000/svg" style="display:none">
  <symbol id="icon-back" viewBox="0 0 24 24">
    <path fill="currentColor" d="M20 11H7.83l5.59-5.59L12 4l-8 8 8 8 1.41-1.41L7.83 13H20v-2z"/>
  </symbol>
  <symbol id="icon-home" viewBox="0 0 24 24">
    <path fill="currentColor" d="M10 20v-6h4v6h5v-8h3L12 3 2 12h3v8z"/>
  </symbol>
  <symbol id="icon-sound-on" viewBox="0 0 24 24">
    <path fill="currentColor" d="M3 9v6h4l5 5V4L7 9H3zm13.5 3A4.5 4.5 0 0014 8.5v7a4.47 4.47 0 002.5-3.5zM14 3.23v2.06a7 7 0 010 13.42v2.06A9 9 0 0014 3.23z"/>
  </symbol>
  <symbol id="icon-sound-off" viewBox="0 0 24 24">
    <path fill="currentColor" d="M16.5 12A4.5 4.5 0 0014 8.5v2.14l2.45 2.45a3.28 3.28 0 00.05-.59zm2.5 0a6.84 6.84 0 01-.54 2.64l1.51 1.51A8.79 8.79 0 0021 12a9 9 0 00-7-8.77v2.06a7 7 0 015.47 8.71zM4.27 3L3 4.27 7.73 9H3v6h4l5 5v-6.73l4.25 4.25a6.92 6.92 0 01-2.25 1.02v2.06a9.16 9.16 0 003.69-1.81L19.73 21 21 19.73l-9-9L4.27 3zM12 4L9.91 6.09 12 8.18V4z"/>
  </symbol>
  <symbol id="icon-help" viewBox="0 0 24 24">
    <path fill="currentColor" d="M12 2C6.48 2 2 6.48 2 12s4.48 10 10 10 10-4.48 10-10S17.52 2 12 2zm1 17h-2v-2h2v2zm2.07-7.75l-.9.92C13.45 12.9 13 13.5 13 15h-2v-.5c0-1.1.45-2.1 1.17-2.83l1.24-1.26c.37-.36.59-.86.59-1.41 0-1.1-.9-2-2-2s-2 .9-2 2H8c0-2.21 1.79-4 4-4s4 1.79 4 4c0 .88-.36 1.68-.93 2.25z"/>
  </symbol>
  <symbol id="icon-settings" viewBox="0 0 24 24">
    <path fill="currentColor" d="M19.14 12.94a7.07 7.07 0 000-1.88l2.03-1.58a.49.49 0 00.12-.61l-1.92-3.32a.49.49 0 00-.59-.22l-2.39.96a7.04 7.04 0 00-1.63-.94l-.36-2.54a.48.48 0 00-.48-.41h-3.84a.48.48 0 00-.48.41l-.36 2.54a7.04 7.04 0 00-1.63.94l-2.39-.96a.49.49 0 00-.59.22L2.74 8.87a.48.48 0 00.12.61l2.03 1.58a7.07 7.07 0 000 1.88l-2.03 1.58a.49.49 0 00-.12.61l1.92 3.32c.12.22.37.29.59.22l2.39-.96c.5.38 1.04.7 1.63.94l.36 2.54c.05.24.26.41.48.41h3.84c.24 0 .44-.17.48-.41l.36-2.54a7.04 7.04 0 001.63-.94l2.39.96c.22.08.47 0 .59-.22l1.92-3.32a.49.49 0 00-.12-.61l-2.03-1.58zM12 15.6A3.6 3.6 0 1115.6 12 3.6 3.6 0 0112 15.6z"/>
  </symbol>
</svg>
